<mxfile host="app.diagrams.net" modified="2023-11-17T23:47:48.871Z" agent="Mozilla/5.0 (Windows NT 10.0; Win64; x64) AppleWebKit/537.36 (KHTML, like Gecko) Chrome/119.0.0.0 Safari/537.36" etag="ikJDMiGWj1716Usux2kJ" version="22.1.3" type="google">
  <diagram name="Page-1" id="CzNSzOoL9hfiYPNX3-wP">
    <mxGraphModel grid="1" page="1" gridSize="10" guides="1" tooltips="1" connect="1" arrows="1" fold="1" pageScale="1" pageWidth="850" pageHeight="1100" math="0" shadow="0">
      <root>
        <mxCell id="0" />
        <mxCell id="1" parent="0" />
        <mxCell id="f6GEQrE6VGuE8PUva02H-1" value="Dashboard&amp;nbsp;&lt;br&gt;" style="rounded=0;whiteSpace=wrap;html=1;" vertex="1" parent="1">
          <mxGeometry x="110" y="90" width="100" height="60" as="geometry" />
        </mxCell>
        <mxCell id="f6GEQrE6VGuE8PUva02H-2" value="User" style="rounded=0;whiteSpace=wrap;html=1;" vertex="1" parent="1">
          <mxGeometry x="640" y="90" width="120" height="60" as="geometry" />
        </mxCell>
        <mxCell id="f6GEQrE6VGuE8PUva02H-3" value="Customer" style="rounded=0;whiteSpace=wrap;html=1;" vertex="1" parent="1">
          <mxGeometry x="350" y="350" width="130" height="60" as="geometry" />
        </mxCell>
        <mxCell id="f6GEQrE6VGuE8PUva02H-4" value="Employee" style="rounded=0;whiteSpace=wrap;html=1;" vertex="1" parent="1">
          <mxGeometry x="890" y="350" width="120" height="60" as="geometry" />
        </mxCell>
        <mxCell id="f6GEQrE6VGuE8PUva02H-5" value="Equipment" style="rounded=0;whiteSpace=wrap;html=1;" vertex="1" parent="1">
          <mxGeometry x="180" y="990" width="120" height="60" as="geometry" />
        </mxCell>
        <mxCell id="f6GEQrE6VGuE8PUva02H-8" value="accesses" style="rhombus;whiteSpace=wrap;html=1;" vertex="1" parent="1">
          <mxGeometry x="385" y="80" width="80" height="80" as="geometry" />
        </mxCell>
        <mxCell id="f6GEQrE6VGuE8PUva02H-12" value="" style="endArrow=none;html=1;rounded=0;exitX=0;exitY=0.5;exitDx=0;exitDy=0;entryX=0.5;entryY=1;entryDx=0;entryDy=0;" edge="1" parent="1" source="f6GEQrE6VGuE8PUva02H-10" target="f6GEQrE6VGuE8PUva02H-2">
          <mxGeometry width="50" height="50" relative="1" as="geometry">
            <mxPoint x="610" y="200" as="sourcePoint" />
            <mxPoint x="660" y="150" as="targetPoint" />
          </mxGeometry>
        </mxCell>
        <mxCell id="f6GEQrE6VGuE8PUva02H-14" value="" style="endArrow=none;html=1;rounded=0;exitX=0.417;exitY=0.02;exitDx=0;exitDy=0;exitPerimeter=0;" edge="1" parent="1" source="f6GEQrE6VGuE8PUva02H-4">
          <mxGeometry width="50" height="50" relative="1" as="geometry">
            <mxPoint x="630" y="290" as="sourcePoint" />
            <mxPoint x="680" y="240" as="targetPoint" />
          </mxGeometry>
        </mxCell>
        <mxCell id="f6GEQrE6VGuE8PUva02H-15" value="books" style="rhombus;whiteSpace=wrap;html=1;" vertex="1" parent="1">
          <mxGeometry x="632.5" y="880" width="115" height="80" as="geometry" />
        </mxCell>
        <mxCell id="f6GEQrE6VGuE8PUva02H-18" value="" style="endArrow=none;html=1;rounded=0;entryX=0.5;entryY=1;entryDx=0;entryDy=0;exitX=0;exitY=0.5;exitDx=0;exitDy=0;" edge="1" parent="1" source="f6GEQrE6VGuE8PUva02H-15" target="f6GEQrE6VGuE8PUva02H-3">
          <mxGeometry width="50" height="50" relative="1" as="geometry">
            <mxPoint x="395" y="510" as="sourcePoint" />
            <mxPoint x="445" y="460" as="targetPoint" />
            <Array as="points">
              <mxPoint x="410" y="920" />
            </Array>
          </mxGeometry>
        </mxCell>
        <mxCell id="f6GEQrE6VGuE8PUva02H-22" value="" style="endArrow=none;html=1;rounded=0;entryX=0.586;entryY=0.982;entryDx=0;entryDy=0;entryPerimeter=0;" edge="1" parent="1" target="f6GEQrE6VGuE8PUva02H-4">
          <mxGeometry width="50" height="50" relative="1" as="geometry">
            <mxPoint x="750" y="920" as="sourcePoint" />
            <mxPoint x="1000" y="475" as="targetPoint" />
            <Array as="points">
              <mxPoint x="960" y="920" />
            </Array>
          </mxGeometry>
        </mxCell>
        <mxCell id="f6GEQrE6VGuE8PUva02H-23" value="" style="endArrow=none;html=1;rounded=0;exitX=0.5;exitY=0;exitDx=0;exitDy=0;" edge="1" parent="1" source="f6GEQrE6VGuE8PUva02H-11" target="f6GEQrE6VGuE8PUva02H-10">
          <mxGeometry width="50" height="50" relative="1" as="geometry">
            <mxPoint x="700" y="220" as="sourcePoint" />
            <mxPoint x="660" y="150" as="targetPoint" />
          </mxGeometry>
        </mxCell>
        <mxCell id="f6GEQrE6VGuE8PUva02H-10" value="" style="triangle;whiteSpace=wrap;html=1;rotation=90;" vertex="1" parent="1">
          <mxGeometry x="670" y="210" width="60" height="70" as="geometry" />
        </mxCell>
        <mxCell id="f6GEQrE6VGuE8PUva02H-11" value="IS A" style="text;html=1;strokeColor=none;fillColor=none;align=center;verticalAlign=middle;whiteSpace=wrap;rounded=0;" vertex="1" parent="1">
          <mxGeometry x="670" y="220" width="60" height="30" as="geometry" />
        </mxCell>
        <mxCell id="f6GEQrE6VGuE8PUva02H-24" value="" style="endArrow=none;html=1;rounded=0;exitX=0.5;exitY=0;exitDx=0;exitDy=0;entryX=0.25;entryY=1;entryDx=0;entryDy=0;" edge="1" parent="1" source="f6GEQrE6VGuE8PUva02H-3" target="f6GEQrE6VGuE8PUva02H-11">
          <mxGeometry width="50" height="50" relative="1" as="geometry">
            <mxPoint x="660" y="360" as="sourcePoint" />
            <mxPoint x="710" y="310" as="targetPoint" />
          </mxGeometry>
        </mxCell>
        <mxCell id="f6GEQrE6VGuE8PUva02H-25" value="" style="endArrow=none;html=1;rounded=0;exitX=1;exitY=0.5;exitDx=0;exitDy=0;" edge="1" parent="1" source="f6GEQrE6VGuE8PUva02H-8">
          <mxGeometry width="50" height="50" relative="1" as="geometry">
            <mxPoint x="540" y="120" as="sourcePoint" />
            <mxPoint x="640" y="120" as="targetPoint" />
          </mxGeometry>
        </mxCell>
        <mxCell id="f6GEQrE6VGuE8PUva02H-26" value="" style="endArrow=none;html=1;rounded=0;exitX=1;exitY=0.5;exitDx=0;exitDy=0;entryX=0;entryY=0.5;entryDx=0;entryDy=0;" edge="1" parent="1" source="f6GEQrE6VGuE8PUva02H-1" target="f6GEQrE6VGuE8PUva02H-8">
          <mxGeometry width="50" height="50" relative="1" as="geometry">
            <mxPoint x="470" y="310" as="sourcePoint" />
            <mxPoint x="520" y="260" as="targetPoint" />
          </mxGeometry>
        </mxCell>
        <mxCell id="f6GEQrE6VGuE8PUva02H-27" value="Assigned" style="rhombus;whiteSpace=wrap;html=1;" vertex="1" parent="1">
          <mxGeometry x="385" y="1120" width="140" height="80" as="geometry" />
        </mxCell>
        <mxCell id="f6GEQrE6VGuE8PUva02H-30" value="" style="endArrow=none;html=1;rounded=0;exitX=0;exitY=0.25;exitDx=0;exitDy=0;" edge="1" parent="1" source="f6GEQrE6VGuE8PUva02H-1" target="f6GEQrE6VGuE8PUva02H-31">
          <mxGeometry width="50" height="50" relative="1" as="geometry">
            <mxPoint x="470" y="160" as="sourcePoint" />
            <mxPoint x="520" y="110" as="targetPoint" />
          </mxGeometry>
        </mxCell>
        <mxCell id="f6GEQrE6VGuE8PUva02H-31" value="login" style="ellipse;whiteSpace=wrap;html=1;" vertex="1" parent="1">
          <mxGeometry x="-30" y="70" width="100" height="30" as="geometry" />
        </mxCell>
        <mxCell id="f6GEQrE6VGuE8PUva02H-32" value="id" style="ellipse;whiteSpace=wrap;html=1;" vertex="1" parent="1">
          <mxGeometry x="820" y="70" width="90" height="20" as="geometry" />
        </mxCell>
        <mxCell id="f6GEQrE6VGuE8PUva02H-33" value="" style="endArrow=none;html=1;rounded=0;entryX=0.1;entryY=0.74;entryDx=0;entryDy=0;entryPerimeter=0;" edge="1" parent="1" target="f6GEQrE6VGuE8PUva02H-32">
          <mxGeometry width="50" height="50" relative="1" as="geometry">
            <mxPoint x="760" y="110" as="sourcePoint" />
            <mxPoint x="810" y="60" as="targetPoint" />
          </mxGeometry>
        </mxCell>
        <mxCell id="f6GEQrE6VGuE8PUva02H-34" value="" style="endArrow=none;html=1;rounded=0;exitX=1;exitY=0.5;exitDx=0;exitDy=0;" edge="1" parent="1" source="f6GEQrE6VGuE8PUva02H-2" target="f6GEQrE6VGuE8PUva02H-35">
          <mxGeometry width="50" height="50" relative="1" as="geometry">
            <mxPoint x="780" y="130" as="sourcePoint" />
            <mxPoint x="830" y="120" as="targetPoint" />
          </mxGeometry>
        </mxCell>
        <mxCell id="f6GEQrE6VGuE8PUva02H-35" value="password" style="ellipse;whiteSpace=wrap;html=1;" vertex="1" parent="1">
          <mxGeometry x="810" y="105" width="110" height="30" as="geometry" />
        </mxCell>
        <mxCell id="f6GEQrE6VGuE8PUva02H-36" value="" style="endArrow=none;html=1;rounded=0;exitX=1;exitY=0.75;exitDx=0;exitDy=0;" edge="1" parent="1" source="f6GEQrE6VGuE8PUva02H-2" target="f6GEQrE6VGuE8PUva02H-37">
          <mxGeometry width="50" height="50" relative="1" as="geometry">
            <mxPoint x="760" y="145" as="sourcePoint" />
            <mxPoint x="860" y="190" as="targetPoint" />
          </mxGeometry>
        </mxCell>
        <mxCell id="f6GEQrE6VGuE8PUva02H-37" value="accountType" style="ellipse;whiteSpace=wrap;html=1;" vertex="1" parent="1">
          <mxGeometry x="800" y="150" width="120" height="30" as="geometry" />
        </mxCell>
        <mxCell id="f6GEQrE6VGuE8PUva02H-40" value="" style="endArrow=none;html=1;rounded=0;" edge="1" parent="1" target="f6GEQrE6VGuE8PUva02H-41">
          <mxGeometry width="50" height="50" relative="1" as="geometry">
            <mxPoint x="1010" y="390" as="sourcePoint" />
            <mxPoint x="890" y="400" as="targetPoint" />
          </mxGeometry>
        </mxCell>
        <mxCell id="f6GEQrE6VGuE8PUva02H-41" value="employeePosition" style="ellipse;whiteSpace=wrap;html=1;" vertex="1" parent="1">
          <mxGeometry x="1070" y="365" width="100" height="30" as="geometry" />
        </mxCell>
        <mxCell id="f6GEQrE6VGuE8PUva02H-51" value="" style="endArrow=none;html=1;rounded=0;exitX=0;exitY=0.25;exitDx=0;exitDy=0;" edge="1" parent="1" source="f6GEQrE6VGuE8PUva02H-5" target="f6GEQrE6VGuE8PUva02H-52">
          <mxGeometry width="50" height="50" relative="1" as="geometry">
            <mxPoint x="470" y="820" as="sourcePoint" />
            <mxPoint x="520" y="770" as="targetPoint" />
          </mxGeometry>
        </mxCell>
        <mxCell id="f6GEQrE6VGuE8PUva02H-53" value="" style="endArrow=none;html=1;rounded=0;exitX=0;exitY=0.5;exitDx=0;exitDy=0;" edge="1" parent="1" source="f6GEQrE6VGuE8PUva02H-5" target="f6GEQrE6VGuE8PUva02H-54">
          <mxGeometry width="50" height="50" relative="1" as="geometry">
            <mxPoint x="470" y="820" as="sourcePoint" />
            <mxPoint x="520" y="770" as="targetPoint" />
          </mxGeometry>
        </mxCell>
        <mxCell id="f6GEQrE6VGuE8PUva02H-54" value="date" style="ellipse;whiteSpace=wrap;html=1;" vertex="1" parent="1">
          <mxGeometry x="-35" y="1000" width="105" height="20" as="geometry" />
        </mxCell>
        <mxCell id="f6GEQrE6VGuE8PUva02H-55" value="" style="endArrow=none;html=1;rounded=0;" edge="1" parent="1" source="f6GEQrE6VGuE8PUva02H-5" target="f6GEQrE6VGuE8PUva02H-56">
          <mxGeometry width="50" height="50" relative="1" as="geometry">
            <mxPoint x="580" y="990" as="sourcePoint" />
            <mxPoint x="630" y="940" as="targetPoint" />
          </mxGeometry>
        </mxCell>
        <mxCell id="f6GEQrE6VGuE8PUva02H-56" value="equipmentCost" style="ellipse;whiteSpace=wrap;html=1;" vertex="1" parent="1">
          <mxGeometry x="-60" y="1030" width="120" height="30" as="geometry" />
        </mxCell>
        <mxCell id="f6GEQrE6VGuE8PUva02H-57" value="equipmentId" style="ellipse;whiteSpace=wrap;html=1;" vertex="1" parent="1">
          <mxGeometry x="-35" y="1060" width="120" height="30" as="geometry" />
        </mxCell>
        <mxCell id="f6GEQrE6VGuE8PUva02H-58" value="" style="endArrow=none;html=1;rounded=0;exitX=1;exitY=0;exitDx=0;exitDy=0;entryX=0;entryY=0.75;entryDx=0;entryDy=0;" edge="1" parent="1" source="f6GEQrE6VGuE8PUva02H-57" target="f6GEQrE6VGuE8PUva02H-5">
          <mxGeometry width="50" height="50" relative="1" as="geometry">
            <mxPoint x="580" y="1000" as="sourcePoint" />
            <mxPoint x="630" y="950" as="targetPoint" />
          </mxGeometry>
        </mxCell>
        <mxCell id="f6GEQrE6VGuE8PUva02H-59" value="equipmentName" style="ellipse;whiteSpace=wrap;html=1;" vertex="1" parent="1">
          <mxGeometry y="920" width="120" height="30" as="geometry" />
        </mxCell>
        <mxCell id="f6GEQrE6VGuE8PUva02H-60" value="" style="endArrow=none;html=1;rounded=0;entryX=0;entryY=0;entryDx=0;entryDy=0;exitX=0.99;exitY=0.59;exitDx=0;exitDy=0;exitPerimeter=0;" edge="1" parent="1" source="f6GEQrE6VGuE8PUva02H-59" target="f6GEQrE6VGuE8PUva02H-5">
          <mxGeometry width="50" height="50" relative="1" as="geometry">
            <mxPoint x="565" y="840" as="sourcePoint" />
            <mxPoint x="615" y="790" as="targetPoint" />
          </mxGeometry>
        </mxCell>
        <mxCell id="f6GEQrE6VGuE8PUva02H-52" value="category" style="ellipse;whiteSpace=wrap;html=1;" vertex="1" parent="1">
          <mxGeometry x="-60" y="950" width="120" height="30" as="geometry" />
        </mxCell>
        <mxCell id="f6GEQrE6VGuE8PUva02H-64" value="rentalStatus" style="ellipse;whiteSpace=wrap;html=1;" vertex="1" parent="1">
          <mxGeometry x="40" y="1100" width="120" height="25" as="geometry" />
        </mxCell>
        <mxCell id="f6GEQrE6VGuE8PUva02H-65" value="" style="endArrow=none;html=1;rounded=0;exitX=0.5;exitY=0;exitDx=0;exitDy=0;" edge="1" parent="1" source="f6GEQrE6VGuE8PUva02H-64" target="f6GEQrE6VGuE8PUva02H-5">
          <mxGeometry width="50" height="50" relative="1" as="geometry">
            <mxPoint x="260" y="900" as="sourcePoint" />
            <mxPoint x="180" y="850" as="targetPoint" />
          </mxGeometry>
        </mxCell>
        <mxCell id="f6GEQrE6VGuE8PUva02H-66" value="" style="endArrow=none;html=1;rounded=0;exitX=1;exitY=0.75;exitDx=0;exitDy=0;entryX=0;entryY=0.5;entryDx=0;entryDy=0;" edge="1" parent="1" source="f6GEQrE6VGuE8PUva02H-6" target="XUxTzGQQG8kfhWx0hwm7-40">
          <mxGeometry width="50" height="50" relative="1" as="geometry">
            <mxPoint x="720" y="810" as="sourcePoint" />
            <mxPoint x="915.4555177261191" y="1132.5927104440375" as="targetPoint" />
          </mxGeometry>
        </mxCell>
        <mxCell id="f6GEQrE6VGuE8PUva02H-70" value="" style="endArrow=none;html=1;rounded=0;exitX=1;exitY=0.5;exitDx=0;exitDy=0;entryX=0;entryY=0.5;entryDx=0;entryDy=0;" edge="1" parent="1" source="f6GEQrE6VGuE8PUva02H-3" target="XZM-Nsli5vwd6clFZPWd-7">
          <mxGeometry width="50" height="50" relative="1" as="geometry">
            <mxPoint x="520" y="370" as="sourcePoint" />
            <mxPoint x="560" y="380" as="targetPoint" />
          </mxGeometry>
        </mxCell>
        <mxCell id="f6GEQrE6VGuE8PUva02H-72" value="" style="endArrow=none;html=1;rounded=0;entryX=0.297;entryY=0.928;entryDx=0;entryDy=0;entryPerimeter=0;exitX=0.5;exitY=0;exitDx=0;exitDy=0;" edge="1" parent="1" source="f6GEQrE6VGuE8PUva02H-73" target="f6GEQrE6VGuE8PUva02H-64">
          <mxGeometry width="50" height="50" relative="1" as="geometry">
            <mxPoint x="550" y="1070" as="sourcePoint" />
            <mxPoint x="600" y="1020" as="targetPoint" />
          </mxGeometry>
        </mxCell>
        <mxCell id="f6GEQrE6VGuE8PUva02H-73" value="booked" style="ellipse;whiteSpace=wrap;html=1;" vertex="1" parent="1">
          <mxGeometry x="-50" y="1150" width="120" height="30" as="geometry" />
        </mxCell>
        <mxCell id="f6GEQrE6VGuE8PUva02H-74" value="" style="endArrow=none;html=1;rounded=0;exitX=0.5;exitY=0;exitDx=0;exitDy=0;entryX=0.5;entryY=1;entryDx=0;entryDy=0;" edge="1" parent="1" source="f6GEQrE6VGuE8PUva02H-75" target="f6GEQrE6VGuE8PUva02H-64">
          <mxGeometry width="50" height="50" relative="1" as="geometry">
            <mxPoint x="690" y="1065" as="sourcePoint" />
            <mxPoint x="670" y="1020" as="targetPoint" />
          </mxGeometry>
        </mxCell>
        <mxCell id="f6GEQrE6VGuE8PUva02H-75" value="available" style="ellipse;whiteSpace=wrap;html=1;" vertex="1" parent="1">
          <mxGeometry x="90" y="1150" width="120" height="30" as="geometry" />
        </mxCell>
        <mxCell id="XZM-Nsli5vwd6clFZPWd-1" value="lastName" style="ellipse;whiteSpace=wrap;html=1;" vertex="1" parent="1">
          <mxGeometry x="790" y="230" width="120" height="30" as="geometry" />
        </mxCell>
        <mxCell id="XZM-Nsli5vwd6clFZPWd-2" value="firstName" style="ellipse;whiteSpace=wrap;html=1;" vertex="1" parent="1">
          <mxGeometry x="790" y="190" width="120" height="30" as="geometry" />
        </mxCell>
        <mxCell id="XZM-Nsli5vwd6clFZPWd-3" value="" style="endArrow=none;html=1;rounded=0;" edge="1" parent="1" source="XZM-Nsli5vwd6clFZPWd-2">
          <mxGeometry width="50" height="50" relative="1" as="geometry">
            <mxPoint x="700" y="200" as="sourcePoint" />
            <mxPoint x="750" y="150" as="targetPoint" />
          </mxGeometry>
        </mxCell>
        <mxCell id="XZM-Nsli5vwd6clFZPWd-4" value="" style="endArrow=none;html=1;rounded=0;entryX=0;entryY=0;entryDx=0;entryDy=0;" edge="1" parent="1" source="f6GEQrE6VGuE8PUva02H-2" target="XZM-Nsli5vwd6clFZPWd-1">
          <mxGeometry width="50" height="50" relative="1" as="geometry">
            <mxPoint x="750" y="80" as="sourcePoint" />
            <mxPoint x="800" y="30" as="targetPoint" />
          </mxGeometry>
        </mxCell>
        <mxCell id="XZM-Nsli5vwd6clFZPWd-5" value="username" style="ellipse;whiteSpace=wrap;html=1;" vertex="1" parent="1">
          <mxGeometry x="810" y="30" width="120" height="30" as="geometry" />
        </mxCell>
        <mxCell id="XZM-Nsli5vwd6clFZPWd-6" value="" style="endArrow=none;html=1;rounded=0;exitX=0.75;exitY=0;exitDx=0;exitDy=0;entryX=0;entryY=1;entryDx=0;entryDy=0;" edge="1" parent="1" source="f6GEQrE6VGuE8PUva02H-2" target="XZM-Nsli5vwd6clFZPWd-5">
          <mxGeometry width="50" height="50" relative="1" as="geometry">
            <mxPoint x="700" y="80" as="sourcePoint" />
            <mxPoint x="750" y="30" as="targetPoint" />
          </mxGeometry>
        </mxCell>
        <mxCell id="XZM-Nsli5vwd6clFZPWd-7" value="accountBalance" style="ellipse;whiteSpace=wrap;html=1;" vertex="1" parent="1">
          <mxGeometry x="550" y="395" width="120" height="30" as="geometry" />
        </mxCell>
        <mxCell id="f6GEQrE6VGuE8PUva02H-6" value="RentalRequest" style="rounded=0;whiteSpace=wrap;html=1;" vertex="1" parent="1">
          <mxGeometry x="630" y="990" width="120" height="60" as="geometry" />
        </mxCell>
        <mxCell id="XUxTzGQQG8kfhWx0hwm7-1" value="Message" style="rounded=0;whiteSpace=wrap;html=1;" vertex="1" parent="1">
          <mxGeometry x="640" y="520" width="120" height="60" as="geometry" />
        </mxCell>
        <mxCell id="XUxTzGQQG8kfhWx0hwm7-2" value="sends" style="rhombus;whiteSpace=wrap;html=1;" vertex="1" parent="1">
          <mxGeometry x="660" y="340" width="80" height="80" as="geometry" />
        </mxCell>
        <mxCell id="XUxTzGQQG8kfhWx0hwm7-3" value="" style="endArrow=none;html=1;rounded=0;entryX=1;entryY=0.5;entryDx=0;entryDy=0;exitX=0;exitY=0.5;exitDx=0;exitDy=0;" edge="1" parent="1" source="XUxTzGQQG8kfhWx0hwm7-2" target="f6GEQrE6VGuE8PUva02H-3">
          <mxGeometry width="50" height="50" relative="1" as="geometry">
            <mxPoint x="660" y="380" as="sourcePoint" />
            <mxPoint x="460" y="370" as="targetPoint" />
          </mxGeometry>
        </mxCell>
        <mxCell id="XUxTzGQQG8kfhWx0hwm7-5" value="id" style="ellipse;whiteSpace=wrap;html=1;" vertex="1" parent="1">
          <mxGeometry x="800" y="480" width="90" height="30" as="geometry" />
        </mxCell>
        <mxCell id="XUxTzGQQG8kfhWx0hwm7-6" value="&lt;font color=&quot;#ff0000&quot;&gt;message&lt;/font&gt;" style="ellipse;whiteSpace=wrap;html=1;" vertex="1" parent="1">
          <mxGeometry x="800" y="535" width="80" height="30" as="geometry" />
        </mxCell>
        <mxCell id="XUxTzGQQG8kfhWx0hwm7-8" value="sender" style="ellipse;whiteSpace=wrap;html=1;" vertex="1" parent="1">
          <mxGeometry x="480" y="480" width="90" height="30" as="geometry" />
        </mxCell>
        <mxCell id="XUxTzGQQG8kfhWx0hwm7-9" value="" style="endArrow=none;html=1;rounded=0;entryX=1;entryY=0.25;entryDx=0;entryDy=0;exitX=0.5;exitY=1;exitDx=0;exitDy=0;" edge="1" parent="1" source="XUxTzGQQG8kfhWx0hwm7-5" target="XUxTzGQQG8kfhWx0hwm7-1">
          <mxGeometry width="50" height="50" relative="1" as="geometry">
            <mxPoint x="80" y="440" as="sourcePoint" />
            <mxPoint x="190" y="470" as="targetPoint" />
          </mxGeometry>
        </mxCell>
        <mxCell id="XUxTzGQQG8kfhWx0hwm7-10" value="" style="endArrow=none;html=1;rounded=0;exitX=0;exitY=0.5;exitDx=0;exitDy=0;entryX=1;entryY=0.5;entryDx=0;entryDy=0;" edge="1" parent="1" source="XUxTzGQQG8kfhWx0hwm7-6" target="XUxTzGQQG8kfhWx0hwm7-1">
          <mxGeometry width="50" height="50" relative="1" as="geometry">
            <mxPoint x="-6.42" y="319.22" as="sourcePoint" />
            <mxPoint x="30" y="330" as="targetPoint" />
          </mxGeometry>
        </mxCell>
        <mxCell id="XUxTzGQQG8kfhWx0hwm7-11" value="" style="endArrow=none;html=1;rounded=0;entryX=0;entryY=0.25;entryDx=0;entryDy=0;exitX=0.5;exitY=1;exitDx=0;exitDy=0;" edge="1" parent="1" source="XUxTzGQQG8kfhWx0hwm7-8" target="XUxTzGQQG8kfhWx0hwm7-1">
          <mxGeometry width="50" height="50" relative="1" as="geometry">
            <mxPoint x="-20" y="300" as="sourcePoint" />
            <mxPoint x="360" y="540" as="targetPoint" />
          </mxGeometry>
        </mxCell>
        <mxCell id="XUxTzGQQG8kfhWx0hwm7-13" value="receiver" style="ellipse;whiteSpace=wrap;html=1;" vertex="1" parent="1">
          <mxGeometry x="460" y="535" width="120" height="30" as="geometry" />
        </mxCell>
        <mxCell id="XUxTzGQQG8kfhWx0hwm7-14" value="" style="endArrow=none;html=1;rounded=0;entryX=0;entryY=0.5;entryDx=0;entryDy=0;exitX=0.948;exitY=0.507;exitDx=0;exitDy=0;exitPerimeter=0;" edge="1" parent="1" source="XUxTzGQQG8kfhWx0hwm7-13" target="XUxTzGQQG8kfhWx0hwm7-1">
          <mxGeometry width="50" height="50" relative="1" as="geometry">
            <mxPoint x="590" y="560" as="sourcePoint" />
            <mxPoint x="360" y="340" as="targetPoint" />
          </mxGeometry>
        </mxCell>
        <mxCell id="XUxTzGQQG8kfhWx0hwm7-17" value="" style="endArrow=none;html=1;rounded=0;exitX=0;exitY=0.5;exitDx=0;exitDy=0;entryX=1;entryY=0.5;entryDx=0;entryDy=0;" edge="1" parent="1" source="f6GEQrE6VGuE8PUva02H-4" target="XUxTzGQQG8kfhWx0hwm7-2">
          <mxGeometry width="50" height="50" relative="1" as="geometry">
            <mxPoint x="570" y="470" as="sourcePoint" />
            <mxPoint x="620" y="420" as="targetPoint" />
          </mxGeometry>
        </mxCell>
        <mxCell id="XUxTzGQQG8kfhWx0hwm7-18" value="" style="endArrow=none;html=1;rounded=0;exitX=0.5;exitY=0;exitDx=0;exitDy=0;entryX=0.5;entryY=1;entryDx=0;entryDy=0;" edge="1" parent="1" source="XUxTzGQQG8kfhWx0hwm7-1" target="XUxTzGQQG8kfhWx0hwm7-2">
          <mxGeometry width="50" height="50" relative="1" as="geometry">
            <mxPoint x="675" y="500" as="sourcePoint" />
            <mxPoint x="725" y="450" as="targetPoint" />
          </mxGeometry>
        </mxCell>
        <mxCell id="XUxTzGQQG8kfhWx0hwm7-19" value="Transaction" style="rounded=0;whiteSpace=wrap;html=1;" vertex="1" parent="1">
          <mxGeometry x="630" y="740" width="120" height="60" as="geometry" />
        </mxCell>
        <mxCell id="XUxTzGQQG8kfhWx0hwm7-20" value="" style="endArrow=none;html=1;rounded=0;exitX=0.601;exitY=0.996;exitDx=0;exitDy=0;exitPerimeter=0;entryX=0;entryY=0.5;entryDx=0;entryDy=0;" edge="1" parent="1" source="f6GEQrE6VGuE8PUva02H-3" target="XUxTzGQQG8kfhWx0hwm7-22">
          <mxGeometry width="50" height="50" relative="1" as="geometry">
            <mxPoint x="670" y="710" as="sourcePoint" />
            <mxPoint x="440" y="640" as="targetPoint" />
            <Array as="points">
              <mxPoint x="428" y="640" />
            </Array>
          </mxGeometry>
        </mxCell>
        <mxCell id="XUxTzGQQG8kfhWx0hwm7-21" value="" style="endArrow=none;html=1;rounded=0;entryX=0.404;entryY=1.011;entryDx=0;entryDy=0;entryPerimeter=0;exitX=1;exitY=0.5;exitDx=0;exitDy=0;" edge="1" parent="1" source="XUxTzGQQG8kfhWx0hwm7-22" target="f6GEQrE6VGuE8PUva02H-4">
          <mxGeometry width="50" height="50" relative="1" as="geometry">
            <mxPoint x="938" y="640" as="sourcePoint" />
            <mxPoint x="720" y="660" as="targetPoint" />
            <Array as="points">
              <mxPoint x="940" y="640" />
            </Array>
          </mxGeometry>
        </mxCell>
        <mxCell id="XUxTzGQQG8kfhWx0hwm7-22" value="makes" style="rhombus;whiteSpace=wrap;html=1;" vertex="1" parent="1">
          <mxGeometry x="650" y="600" width="80" height="80" as="geometry" />
        </mxCell>
        <mxCell id="XUxTzGQQG8kfhWx0hwm7-24" value="" style="endArrow=none;html=1;rounded=0;entryX=0.5;entryY=1;entryDx=0;entryDy=0;exitX=0.5;exitY=0;exitDx=0;exitDy=0;" edge="1" parent="1" source="XUxTzGQQG8kfhWx0hwm7-19" target="XUxTzGQQG8kfhWx0hwm7-22">
          <mxGeometry width="50" height="50" relative="1" as="geometry">
            <mxPoint x="690" y="740" as="sourcePoint" />
            <mxPoint x="720" y="700" as="targetPoint" />
          </mxGeometry>
        </mxCell>
        <mxCell id="XUxTzGQQG8kfhWx0hwm7-25" value="" style="endArrow=none;html=1;rounded=0;entryX=1;entryY=0.25;entryDx=0;entryDy=0;exitX=0;exitY=0.5;exitDx=0;exitDy=0;" edge="1" parent="1" source="XUxTzGQQG8kfhWx0hwm7-26" target="XUxTzGQQG8kfhWx0hwm7-19">
          <mxGeometry width="50" height="50" relative="1" as="geometry">
            <mxPoint x="790" y="755" as="sourcePoint" />
            <mxPoint x="720" y="800" as="targetPoint" />
          </mxGeometry>
        </mxCell>
        <mxCell id="XUxTzGQQG8kfhWx0hwm7-26" value="endDate" style="ellipse;whiteSpace=wrap;html=1;" vertex="1" parent="1">
          <mxGeometry x="805" y="740" width="75" height="30" as="geometry" />
        </mxCell>
        <mxCell id="XUxTzGQQG8kfhWx0hwm7-27" value="" style="endArrow=none;html=1;rounded=0;entryX=1;entryY=0.75;entryDx=0;entryDy=0;exitX=0;exitY=0.5;exitDx=0;exitDy=0;" edge="1" parent="1" source="XUxTzGQQG8kfhWx0hwm7-28" target="XUxTzGQQG8kfhWx0hwm7-19">
          <mxGeometry width="50" height="50" relative="1" as="geometry">
            <mxPoint x="810" y="800" as="sourcePoint" />
            <mxPoint x="720" y="800" as="targetPoint" />
          </mxGeometry>
        </mxCell>
        <mxCell id="XUxTzGQQG8kfhWx0hwm7-28" value="startDate" style="ellipse;whiteSpace=wrap;html=1;" vertex="1" parent="1">
          <mxGeometry x="800" y="780" width="90" height="30" as="geometry" />
        </mxCell>
        <mxCell id="XUxTzGQQG8kfhWx0hwm7-29" value="" style="endArrow=none;html=1;rounded=0;entryX=1;entryY=0;entryDx=0;entryDy=0;exitX=0;exitY=0.5;exitDx=0;exitDy=0;" edge="1" parent="1" source="XUxTzGQQG8kfhWx0hwm7-30" target="XUxTzGQQG8kfhWx0hwm7-19">
          <mxGeometry width="50" height="50" relative="1" as="geometry">
            <mxPoint x="810" y="710" as="sourcePoint" />
            <mxPoint x="720" y="800" as="targetPoint" />
          </mxGeometry>
        </mxCell>
        <mxCell id="XUxTzGQQG8kfhWx0hwm7-30" value="id" style="ellipse;whiteSpace=wrap;html=1;" vertex="1" parent="1">
          <mxGeometry x="805" y="700" width="75" height="30" as="geometry" />
        </mxCell>
        <mxCell id="XUxTzGQQG8kfhWx0hwm7-31" value="" style="endArrow=none;html=1;rounded=0;entryX=1;entryY=1;entryDx=0;entryDy=0;exitX=0.045;exitY=0.295;exitDx=0;exitDy=0;exitPerimeter=0;" edge="1" parent="1" source="XUxTzGQQG8kfhWx0hwm7-32" target="XUxTzGQQG8kfhWx0hwm7-19">
          <mxGeometry width="50" height="50" relative="1" as="geometry">
            <mxPoint x="800" y="830" as="sourcePoint" />
            <mxPoint x="720" y="800" as="targetPoint" />
          </mxGeometry>
        </mxCell>
        <mxCell id="XUxTzGQQG8kfhWx0hwm7-32" value="transactionCost" style="ellipse;whiteSpace=wrap;html=1;" vertex="1" parent="1">
          <mxGeometry x="800" y="820" width="120" height="40" as="geometry" />
        </mxCell>
        <mxCell id="XUxTzGQQG8kfhWx0hwm7-33" style="edgeStyle=orthogonalEdgeStyle;rounded=0;orthogonalLoop=1;jettySize=auto;html=1;exitX=0.5;exitY=1;exitDx=0;exitDy=0;" edge="1" parent="1" source="f6GEQrE6VGuE8PUva02H-64" target="f6GEQrE6VGuE8PUva02H-64">
          <mxGeometry relative="1" as="geometry" />
        </mxCell>
        <mxCell id="XUxTzGQQG8kfhWx0hwm7-34" value="" style="endArrow=none;html=1;rounded=0;entryX=0.5;entryY=1;entryDx=0;entryDy=0;exitX=0.5;exitY=0;exitDx=0;exitDy=0;" edge="1" parent="1" source="f6GEQrE6VGuE8PUva02H-6" target="f6GEQrE6VGuE8PUva02H-15">
          <mxGeometry width="50" height="50" relative="1" as="geometry">
            <mxPoint x="690" y="1000" as="sourcePoint" />
            <mxPoint x="720" y="1070" as="targetPoint" />
          </mxGeometry>
        </mxCell>
        <mxCell id="XUxTzGQQG8kfhWx0hwm7-36" value="" style="endArrow=none;html=1;rounded=0;entryX=1;entryY=0.25;entryDx=0;entryDy=0;exitX=-0.009;exitY=0.414;exitDx=0;exitDy=0;exitPerimeter=0;" edge="1" parent="1" source="XUxTzGQQG8kfhWx0hwm7-38" target="f6GEQrE6VGuE8PUva02H-6">
          <mxGeometry width="50" height="50" relative="1" as="geometry">
            <mxPoint x="880" y="1010" as="sourcePoint" />
            <mxPoint x="720" y="1190" as="targetPoint" />
          </mxGeometry>
        </mxCell>
        <mxCell id="XUxTzGQQG8kfhWx0hwm7-37" value="" style="endArrow=none;html=1;rounded=0;entryX=1;entryY=0.5;entryDx=0;entryDy=0;exitX=0;exitY=0.5;exitDx=0;exitDy=0;" edge="1" parent="1" source="XUxTzGQQG8kfhWx0hwm7-39" target="f6GEQrE6VGuE8PUva02H-6">
          <mxGeometry width="50" height="50" relative="1" as="geometry">
            <mxPoint x="880" y="1040" as="sourcePoint" />
            <mxPoint x="720" y="1190" as="targetPoint" />
          </mxGeometry>
        </mxCell>
        <mxCell id="XUxTzGQQG8kfhWx0hwm7-38" value="id" style="ellipse;whiteSpace=wrap;html=1;" vertex="1" parent="1">
          <mxGeometry x="790" y="960" width="80" height="30" as="geometry" />
        </mxCell>
        <mxCell id="XUxTzGQQG8kfhWx0hwm7-39" value="requestStartDate" style="ellipse;whiteSpace=wrap;html=1;" vertex="1" parent="1">
          <mxGeometry x="840" y="990" width="130" height="40" as="geometry" />
        </mxCell>
        <mxCell id="XUxTzGQQG8kfhWx0hwm7-40" value="requestEndDate" style="ellipse;whiteSpace=wrap;html=1;" vertex="1" parent="1">
          <mxGeometry x="860" y="1040" width="120" height="40" as="geometry" />
        </mxCell>
        <mxCell id="XUxTzGQQG8kfhWx0hwm7-41" value="" style="endArrow=none;html=1;rounded=0;entryX=1;entryY=1;entryDx=0;entryDy=0;exitX=0.035;exitY=0.413;exitDx=0;exitDy=0;exitPerimeter=0;" edge="1" parent="1" source="XUxTzGQQG8kfhWx0hwm7-42" target="f6GEQrE6VGuE8PUva02H-6">
          <mxGeometry width="50" height="50" relative="1" as="geometry">
            <mxPoint x="850" y="1100" as="sourcePoint" />
            <mxPoint x="720" y="1190" as="targetPoint" />
          </mxGeometry>
        </mxCell>
        <mxCell id="XUxTzGQQG8kfhWx0hwm7-42" value="customer" style="ellipse;whiteSpace=wrap;html=1;" vertex="1" parent="1">
          <mxGeometry x="840" y="1090" width="120" height="30" as="geometry" />
        </mxCell>
        <mxCell id="XUxTzGQQG8kfhWx0hwm7-43" value="employee" style="ellipse;whiteSpace=wrap;html=1;" vertex="1" parent="1">
          <mxGeometry x="870" y="1120" width="120" height="30" as="geometry" />
        </mxCell>
        <mxCell id="XUxTzGQQG8kfhWx0hwm7-44" value="" style="endArrow=none;html=1;rounded=0;entryX=0.75;entryY=1;entryDx=0;entryDy=0;exitX=0.018;exitY=0.387;exitDx=0;exitDy=0;exitPerimeter=0;" edge="1" parent="1" source="XUxTzGQQG8kfhWx0hwm7-43" target="f6GEQrE6VGuE8PUva02H-6">
          <mxGeometry width="50" height="50" relative="1" as="geometry">
            <mxPoint x="870" y="1150" as="sourcePoint" />
            <mxPoint x="720" y="1190" as="targetPoint" />
          </mxGeometry>
        </mxCell>
        <mxCell id="XUxTzGQQG8kfhWx0hwm7-46" value="requests" style="rhombus;whiteSpace=wrap;html=1;" vertex="1" parent="1">
          <mxGeometry x="427.5" y="980" width="80" height="80" as="geometry" />
        </mxCell>
        <mxCell id="XUxTzGQQG8kfhWx0hwm7-47" value="" style="endArrow=none;html=1;rounded=0;exitX=1;exitY=0.5;exitDx=0;exitDy=0;entryX=0;entryY=0.5;entryDx=0;entryDy=0;" edge="1" parent="1" source="f6GEQrE6VGuE8PUva02H-5" target="XUxTzGQQG8kfhWx0hwm7-46">
          <mxGeometry width="50" height="50" relative="1" as="geometry">
            <mxPoint x="450" y="950" as="sourcePoint" />
            <mxPoint x="500" y="900" as="targetPoint" />
          </mxGeometry>
        </mxCell>
        <mxCell id="XUxTzGQQG8kfhWx0hwm7-48" value="" style="endArrow=none;html=1;rounded=0;exitX=1;exitY=0.5;exitDx=0;exitDy=0;entryX=0;entryY=0.5;entryDx=0;entryDy=0;" edge="1" parent="1" source="XUxTzGQQG8kfhWx0hwm7-46" target="f6GEQrE6VGuE8PUva02H-6">
          <mxGeometry width="50" height="50" relative="1" as="geometry">
            <mxPoint x="450" y="950" as="sourcePoint" />
            <mxPoint x="500" y="900" as="targetPoint" />
          </mxGeometry>
        </mxCell>
        <mxCell id="XUxTzGQQG8kfhWx0hwm7-49" value="" style="endArrow=none;html=1;rounded=0;entryX=0;entryY=0.5;entryDx=0;entryDy=0;exitX=0.5;exitY=0;exitDx=0;exitDy=0;" edge="1" parent="1" source="XUxTzGQQG8kfhWx0hwm7-46" target="XUxTzGQQG8kfhWx0hwm7-19">
          <mxGeometry width="50" height="50" relative="1" as="geometry">
            <mxPoint x="450" y="950" as="sourcePoint" />
            <mxPoint x="500" y="900" as="targetPoint" />
            <Array as="points">
              <mxPoint x="470" y="770" />
            </Array>
          </mxGeometry>
        </mxCell>
        <mxCell id="XUxTzGQQG8kfhWx0hwm7-50" value="" style="endArrow=none;html=1;rounded=0;entryX=0.5;entryY=1;entryDx=0;entryDy=0;exitX=0;exitY=0.5;exitDx=0;exitDy=0;" edge="1" parent="1" source="f6GEQrE6VGuE8PUva02H-27" target="f6GEQrE6VGuE8PUva02H-5">
          <mxGeometry width="50" height="50" relative="1" as="geometry">
            <mxPoint x="320" y="1160" as="sourcePoint" />
            <mxPoint x="500" y="1180" as="targetPoint" />
            <Array as="points">
              <mxPoint x="240" y="1160" />
            </Array>
          </mxGeometry>
        </mxCell>
        <mxCell id="XUxTzGQQG8kfhWx0hwm7-51" value="" style="endArrow=none;html=1;rounded=0;entryX=0.5;entryY=1;entryDx=0;entryDy=0;exitX=1;exitY=0.5;exitDx=0;exitDy=0;" edge="1" parent="1" source="f6GEQrE6VGuE8PUva02H-27" target="f6GEQrE6VGuE8PUva02H-6">
          <mxGeometry width="50" height="50" relative="1" as="geometry">
            <mxPoint x="690" y="1150" as="sourcePoint" />
            <mxPoint x="500" y="1180" as="targetPoint" />
            <Array as="points">
              <mxPoint x="690" y="1160" />
            </Array>
          </mxGeometry>
        </mxCell>
        <mxCell id="XUxTzGQQG8kfhWx0hwm7-52" value="Date" style="rounded=0;whiteSpace=wrap;html=1;" vertex="1" parent="1">
          <mxGeometry x="395" y="1250" width="120" height="60" as="geometry" />
        </mxCell>
        <mxCell id="XUxTzGQQG8kfhWx0hwm7-53" value="" style="endArrow=none;html=1;rounded=0;entryX=0.5;entryY=1;entryDx=0;entryDy=0;exitX=0.5;exitY=0;exitDx=0;exitDy=0;" edge="1" parent="1" source="XUxTzGQQG8kfhWx0hwm7-52" target="f6GEQrE6VGuE8PUva02H-27">
          <mxGeometry width="50" height="50" relative="1" as="geometry">
            <mxPoint x="450" y="1230" as="sourcePoint" />
            <mxPoint x="500" y="1180" as="targetPoint" />
          </mxGeometry>
        </mxCell>
        <mxCell id="XUxTzGQQG8kfhWx0hwm7-54" value="year" style="ellipse;whiteSpace=wrap;html=1;" vertex="1" parent="1">
          <mxGeometry x="540" y="1305" width="80" height="35" as="geometry" />
        </mxCell>
        <mxCell id="XUxTzGQQG8kfhWx0hwm7-55" value="month" style="ellipse;whiteSpace=wrap;html=1;" vertex="1" parent="1">
          <mxGeometry x="402.5" y="1350" width="105" height="30" as="geometry" />
        </mxCell>
        <mxCell id="XUxTzGQQG8kfhWx0hwm7-56" value="day" style="ellipse;whiteSpace=wrap;html=1;" vertex="1" parent="1">
          <mxGeometry x="265" y="1310" width="95" height="30" as="geometry" />
        </mxCell>
        <mxCell id="XUxTzGQQG8kfhWx0hwm7-57" value="" style="endArrow=none;html=1;rounded=0;entryX=0;entryY=0.5;entryDx=0;entryDy=0;exitX=0.739;exitY=0.053;exitDx=0;exitDy=0;exitPerimeter=0;" edge="1" parent="1" source="XUxTzGQQG8kfhWx0hwm7-56" target="XUxTzGQQG8kfhWx0hwm7-52">
          <mxGeometry width="50" height="50" relative="1" as="geometry">
            <mxPoint x="450" y="1320" as="sourcePoint" />
            <mxPoint x="500" y="1270" as="targetPoint" />
          </mxGeometry>
        </mxCell>
        <mxCell id="XUxTzGQQG8kfhWx0hwm7-58" value="" style="endArrow=none;html=1;rounded=0;exitX=0.5;exitY=0;exitDx=0;exitDy=0;entryX=0.5;entryY=1;entryDx=0;entryDy=0;" edge="1" parent="1" source="XUxTzGQQG8kfhWx0hwm7-55" target="XUxTzGQQG8kfhWx0hwm7-52">
          <mxGeometry width="50" height="50" relative="1" as="geometry">
            <mxPoint x="450" y="1320" as="sourcePoint" />
            <mxPoint x="500" y="1270" as="targetPoint" />
          </mxGeometry>
        </mxCell>
        <mxCell id="XUxTzGQQG8kfhWx0hwm7-59" value="" style="endArrow=none;html=1;rounded=0;entryX=1;entryY=0.5;entryDx=0;entryDy=0;exitX=0.5;exitY=0;exitDx=0;exitDy=0;" edge="1" parent="1" source="XUxTzGQQG8kfhWx0hwm7-54" target="XUxTzGQQG8kfhWx0hwm7-52">
          <mxGeometry width="50" height="50" relative="1" as="geometry">
            <mxPoint x="450" y="1320" as="sourcePoint" />
            <mxPoint x="500" y="1270" as="targetPoint" />
          </mxGeometry>
        </mxCell>
        <mxCell id="tcVSRC4uZ9ZDgLCRlsHL-1" value="M" style="text;html=1;strokeColor=none;fillColor=none;align=center;verticalAlign=middle;whiteSpace=wrap;rounded=0;" vertex="1" parent="1">
          <mxGeometry x="580" y="90" width="60" height="30" as="geometry" />
        </mxCell>
        <mxCell id="tcVSRC4uZ9ZDgLCRlsHL-2" value="1" style="text;html=1;strokeColor=none;fillColor=none;align=center;verticalAlign=middle;whiteSpace=wrap;rounded=0;" vertex="1" parent="1">
          <mxGeometry x="210" y="90" width="60" height="30" as="geometry" />
        </mxCell>
        <mxCell id="tcVSRC4uZ9ZDgLCRlsHL-3" value="M" style="text;html=1;strokeColor=none;fillColor=none;align=center;verticalAlign=middle;whiteSpace=wrap;rounded=0;" vertex="1" parent="1">
          <mxGeometry x="660" y="150" width="60" height="30" as="geometry" />
        </mxCell>
        <mxCell id="tcVSRC4uZ9ZDgLCRlsHL-6" value="M" style="text;html=1;strokeColor=none;fillColor=none;align=center;verticalAlign=middle;whiteSpace=wrap;rounded=0;" vertex="1" parent="1">
          <mxGeometry x="490" y="350" width="60" height="30" as="geometry" />
        </mxCell>
        <mxCell id="tcVSRC4uZ9ZDgLCRlsHL-7" value="M" style="text;html=1;strokeColor=none;fillColor=none;align=center;verticalAlign=middle;whiteSpace=wrap;rounded=0;" vertex="1" parent="1">
          <mxGeometry x="620" y="490" width="60" height="30" as="geometry" />
        </mxCell>
        <mxCell id="tcVSRC4uZ9ZDgLCRlsHL-9" value="M" style="text;html=1;strokeColor=none;fillColor=none;align=center;verticalAlign=middle;whiteSpace=wrap;rounded=0;" vertex="1" parent="1">
          <mxGeometry x="830" y="350" width="60" height="30" as="geometry" />
        </mxCell>
        <mxCell id="tcVSRC4uZ9ZDgLCRlsHL-10" value="M" style="text;html=1;strokeColor=none;fillColor=none;align=center;verticalAlign=middle;whiteSpace=wrap;rounded=0;" vertex="1" parent="1">
          <mxGeometry x="700" y="490" width="60" height="30" as="geometry" />
        </mxCell>
        <mxCell id="tcVSRC4uZ9ZDgLCRlsHL-11" value="1" style="text;html=1;strokeColor=none;fillColor=none;align=center;verticalAlign=middle;whiteSpace=wrap;rounded=0;" vertex="1" parent="1">
          <mxGeometry x="405" y="410" width="60" height="30" as="geometry" />
        </mxCell>
        <mxCell id="tcVSRC4uZ9ZDgLCRlsHL-12" value="1" style="text;html=1;strokeColor=none;fillColor=none;align=center;verticalAlign=middle;whiteSpace=wrap;rounded=0;" vertex="1" parent="1">
          <mxGeometry x="640" y="710" width="60" height="30" as="geometry" />
        </mxCell>
        <mxCell id="tcVSRC4uZ9ZDgLCRlsHL-13" value="1" style="text;html=1;strokeColor=none;fillColor=none;align=center;verticalAlign=middle;whiteSpace=wrap;rounded=0;" vertex="1" parent="1">
          <mxGeometry x="900" y="410" width="60" height="30" as="geometry" />
        </mxCell>
        <mxCell id="tcVSRC4uZ9ZDgLCRlsHL-14" value="1" style="text;html=1;strokeColor=none;fillColor=none;align=center;verticalAlign=middle;whiteSpace=wrap;rounded=0;" vertex="1" parent="1">
          <mxGeometry x="670" y="710" width="60" height="30" as="geometry" />
        </mxCell>
        <mxCell id="tcVSRC4uZ9ZDgLCRlsHL-16" value="1" style="text;html=1;strokeColor=none;fillColor=none;align=center;verticalAlign=middle;whiteSpace=wrap;rounded=0;" vertex="1" parent="1">
          <mxGeometry x="368" y="410" width="60" height="30" as="geometry" />
        </mxCell>
        <mxCell id="tcVSRC4uZ9ZDgLCRlsHL-17" value="1" style="text;html=1;strokeColor=none;fillColor=none;align=center;verticalAlign=middle;whiteSpace=wrap;rounded=0;" vertex="1" parent="1">
          <mxGeometry x="633" y="960" width="60" height="30" as="geometry" />
        </mxCell>
        <mxCell id="tcVSRC4uZ9ZDgLCRlsHL-18" value="1" style="text;html=1;strokeColor=none;fillColor=none;align=center;verticalAlign=middle;whiteSpace=wrap;rounded=0;" vertex="1" parent="1">
          <mxGeometry x="680" y="960" width="60" height="30" as="geometry" />
        </mxCell>
        <mxCell id="tcVSRC4uZ9ZDgLCRlsHL-19" value="1" style="text;html=1;strokeColor=none;fillColor=none;align=center;verticalAlign=middle;whiteSpace=wrap;rounded=0;" vertex="1" parent="1">
          <mxGeometry x="950" y="410" width="60" height="30" as="geometry" />
        </mxCell>
        <mxCell id="tcVSRC4uZ9ZDgLCRlsHL-20" value="1" style="text;html=1;strokeColor=none;fillColor=none;align=center;verticalAlign=middle;whiteSpace=wrap;rounded=0;" vertex="1" parent="1">
          <mxGeometry x="300" y="1000" width="60" height="30" as="geometry" />
        </mxCell>
        <mxCell id="tcVSRC4uZ9ZDgLCRlsHL-21" value="1" style="text;html=1;strokeColor=none;fillColor=none;align=center;verticalAlign=middle;whiteSpace=wrap;rounded=0;" vertex="1" parent="1">
          <mxGeometry x="580" y="995" width="60" height="30" as="geometry" />
        </mxCell>
        <mxCell id="tcVSRC4uZ9ZDgLCRlsHL-22" value="1" style="text;html=1;strokeColor=none;fillColor=none;align=center;verticalAlign=middle;whiteSpace=wrap;rounded=0;" vertex="1" parent="1">
          <mxGeometry x="230" y="1050" width="60" height="30" as="geometry" />
        </mxCell>
        <mxCell id="tcVSRC4uZ9ZDgLCRlsHL-23" value="1" style="text;html=1;strokeColor=none;fillColor=none;align=center;verticalAlign=middle;whiteSpace=wrap;rounded=0;" vertex="1" parent="1">
          <mxGeometry x="640" y="1050" width="60" height="30" as="geometry" />
        </mxCell>
        <mxCell id="tcVSRC4uZ9ZDgLCRlsHL-24" value="1" style="text;html=1;strokeColor=none;fillColor=none;align=center;verticalAlign=middle;whiteSpace=wrap;rounded=0;" vertex="1" parent="1">
          <mxGeometry x="405" y="1220" width="60" height="30" as="geometry" />
        </mxCell>
        <mxCell id="tcVSRC4uZ9ZDgLCRlsHL-25" value="1" style="text;html=1;strokeColor=none;fillColor=none;align=center;verticalAlign=middle;whiteSpace=wrap;rounded=0;" vertex="1" parent="1">
          <mxGeometry x="448" y="1220" width="60" height="30" as="geometry" />
        </mxCell>
      </root>
    </mxGraphModel>
  </diagram>
</mxfile>
